<svg xmlns="http://www.w3.org/2000/svg" xmlns:xlink="http://www.w3.org/1999/xlink" viewBox="0 0 95.72 92.37"><defs><style>.cls-1{fill:none;}.cls-2{isolation:isolate;}.cls-3{clip-path:url(#clip-path);}.cls-4{fill:#fbbca0;}.cls-5{fill:#e6e7e8;}.cls-10,.cls-5{mix-blend-mode:multiply;}.cls-6{fill:#dda78f;}.cls-7{fill:#fff;}.cls-8{fill:#002c41;}.cls-9{fill:#fbb040;}.cls-10{fill:#d1d3d4;}.cls-11{fill:#3c2415;}.cls-12{fill:#002136;}.cls-13{fill:#e2e3e4;}</style><clipPath id="clip-path" transform="translate(-4.47 -12.28)"><circle class="cls-1" cx="52.33" cy="52.33" r="52.33" transform="translate(-10.66 91.19) rotate(-76.67)"/></clipPath></defs><g class="cls-2"><g id="Layer_2" data-name="Layer 2"><g id="Capa_1" data-name="Capa 1"><g class="cls-3"><rect class="cls-4" x="37.84" y="54.86" width="20.04" height="13.5"/><path class="cls-5" d="M47.17,76.91a27.22,27.22,0,0,0,9.59,2,30.88,30.88,0,0,0,5.59-.55V67.14h-20v7A16.93,16.93,0,0,0,47.17,76.91Z" transform="translate(-4.47 -12.28)"/><path class="cls-4" d="M74.45,42.13c.07-.49.93-1.29,1.31-1.56a1.25,1.25,0,0,1,1.93.8A11,11,0,0,1,78,43.59a9.48,9.48,0,0,1-1,5.1,6.84,6.84,0,0,1-2.43,2.61.87.87,0,0,1-1.31-.69Z" transform="translate(-4.47 -12.28)"/><path class="cls-6" d="M74.27,43.2c0-.36.67-.93.94-1.12a.89.89,0,0,1,1.38.57,7.07,7.07,0,0,1,.21,1.59,6.8,6.8,0,0,1-.7,3.65,4.93,4.93,0,0,1-1.74,1.86.62.62,0,0,1-.94-.49Z" transform="translate(-4.47 -12.28)"/><path class="cls-4" d="M29.71,42.13c-.07-.49-.93-1.29-1.31-1.56a1.25,1.25,0,0,0-1.93.8,9.72,9.72,0,0,0-.29,2.22,9.47,9.47,0,0,0,1,5.1,6.92,6.92,0,0,0,2.43,2.61.88.88,0,0,0,1.32-.69Z" transform="translate(-4.47 -12.28)"/><path class="cls-6" d="M29.88,43.2c-.05-.36-.66-.93-.93-1.12a.89.89,0,0,0-1.38.57,6.54,6.54,0,0,0-.21,1.59,6.7,6.7,0,0,0,.69,3.65,5,5,0,0,0,1.74,1.86.62.62,0,0,0,.94-.49Z" transform="translate(-4.47 -12.28)"/><path class="cls-4" d="M75.12,43.73A32.67,32.67,0,0,1,71.41,59.8a32.41,32.41,0,0,1-9.78,10.32c-3.1,2.2-6.44,4.75-10.37,4.44C47.17,74.24,44,70.85,41,68.21A34.49,34.49,0,0,1,31.4,54.45a30.69,30.69,0,0,1-1.85-10.72c0-18.07,10.2-29.43,22.79-29.43S75.12,25.66,75.12,43.73Z" transform="translate(-4.47 -12.28)"/><path class="cls-4" d="M87.33,86.75l-25-6.53h-20l-25,6.53A21.44,21.44,0,0,0,4.47,104.61h95.72A21.44,21.44,0,0,0,87.33,86.75Z" transform="translate(-4.47 -12.28)"/><path class="cls-7" d="M87.33,86.75l-25-6.53h-20l-25,6.53A21.44,21.44,0,0,0,4.47,104.61h95.72A21.44,21.44,0,0,0,87.33,86.75Z" transform="translate(-4.47 -12.28)"/><path class="cls-8" d="M87.33,86.75,68.85,81.91l-16.52,22.7L36,81.87,17.34,86.75A21.44,21.44,0,0,0,4.47,104.61h95.72A21.44,21.44,0,0,0,87.33,86.75Z" transform="translate(-4.47 -12.28)"/><polygon class="cls-9" points="45.67 80.96 41.06 92.33 54.14 92.33 49.65 80.96 45.67 80.96"/><polygon class="cls-9" points="47.56 68.16 41.7 76.02 45.77 80.99 47.77 80.96 49.76 80.93 53.67 75.83 47.56 68.16"/><path class="cls-10" d="M56,87.27c-.76,1.48-2.15,3.17-4,2.75a3.25,3.25,0,0,1-2.4-4.16c.44-1.83,1.62-3.36,2.28-5.1L46.17,88.3l4.08,5,4-.06,3.91-5.11L56.49,86C56.33,86.45,56.15,86.87,56,87.27Z" transform="translate(-4.47 -12.28)"/><path class="cls-11" d="M75.44,41.5S71.73,58.88,59.25,63.88c0,0-1.55,3.86-6.72,3.86s-6.73-3.86-6.73-3.86c-12.48-5-16.19-22.38-16.19-22.38C28.52,61,42.52,69.41,42.52,69.41c7.63,6.24,10,5.17,10,5.17s2.38,1.07,10-5.17C62.53,69.41,76.39,61.52,75.44,41.5Z" transform="translate(-4.47 -12.28)"/><path class="cls-11" d="M52.33,58.08s-5.15-1.58-6.53,5.8a8.76,8.76,0,0,1-3.77-2S45.49,53.2,52.33,58.08Z" transform="translate(-4.47 -12.28)"/><path class="cls-11" d="M52.77,58.08s5.16-1.58,6.54,5.8a8.82,8.82,0,0,0,3.77-2S59.62,53.2,52.77,58.08Z" transform="translate(-4.47 -12.28)"/><path class="cls-11" d="M29.61,41.5S33,21.16,43.38,23.16c0,0,9.43,5.86,17.29-.14,0,0,9.54-.32,14.77,18.48,0,0,1.31-20.06-13.09-27.2,0,0-13.32-6.15-24.72,3A25.76,25.76,0,0,0,29.61,41.5Z" transform="translate(-4.47 -12.28)"/><polygon class="cls-12" points="47.86 92.33 31.52 69.59 18.46 73.01 35.15 84.76 30.87 86.65 38.58 92.33 47.86 92.33"/><polygon class="cls-12" points="47.86 92.36 64.19 69.62 77.25 73.04 60.56 84.79 64.85 86.68 57.13 92.36 47.86 92.36"/><polygon class="cls-13" points="28.01 68.42 37.8 63.82 47.79 67.99 57.78 63.82 68.24 68.42 53.44 78.33 47.79 70.23 41.7 78.33 28.01 68.42"/></g></g></g></g></svg>